# xmcd
#
# Track frame offsets: 
#        150
#        12223
#        29686
#        44959
#        57166
#        69646
#        83081
#        95047
#        109931
#        123135
#        134581
#        148186
#        159131
#
# Disc length: 2367 seconds
#
# Revision: 0
# Processed by: cddbd v1.5.2PL0 Copyright (c) Steve Scherf et al.
# Submitted via: ExactAudioCopy v0.99pb5
#
DISCID=bb093d0d
DTITLE=Bluegrass Brethren - Near the Cross
DYEAR=2007
DGENRE=Bluegrass
TTITLE0=Power in the Blood
TTITLE1=Stand Up for Jesus
TTITLE2=Higher Ground
TTITLE3=Sweet By and By
TTITLE4=We've a Story to Tell to the Nations
TTITLE5=Near the Cross
TTITLE6=Draw Me Nearer
TTITLE7=Onward Christian Soldiers
TTITLE8=Near to the Heart of God
TTITLE9=Blessed Be the Name
TTITLE10=I Know Whom I Have Believed
TTITLE11=Take the Name of Jesus With You
TTITLE12=My Jesus I Love Thee
EXTD=
EXTT0=
EXTT1=
EXTT2=
EXTT3=
EXTT4=
EXTT5=
EXTT6=
EXTT7=
EXTT8=
EXTT9=
EXTT10=
EXTT11=
EXTT12=
PLAYORDER=
